<svg width="70" height="70" viewBox="0 0 70 70" fill="none" xmlns="http://www.w3.org/2000/svg">
<g id="Icon">
<rect id="Rectangle 13" width="70" height="70" rx="10" fill="#FFA666"/>
<g id="Icon_2">
<path fill-rule="evenodd" clip-rule="evenodd" d="M29.8059 38.78C28.4141 38.78 27.2859 37.6518 27.2859 36.26C27.2859 34.8682 28.4141 33.74 29.8059 33.74C30.0281 33.74 30.2435 33.7687 30.4487 33.8227L33.662 30.6094C33.6044 30.3978 33.5736 30.1751 33.5736 29.9452C33.5736 28.5535 34.7018 27.4252 36.0936 27.4252C37.4853 27.4252 38.6136 28.5535 38.6136 29.9452C38.6136 30.6278 38.3422 31.247 37.9015 31.7008L39.2224 36.3241C40.3253 36.5927 41.144 37.587 41.144 38.7726C41.144 40.1644 40.0158 41.2926 38.624 41.2926C37.4471 41.2926 36.4586 40.4858 36.1815 39.395L31.5558 38.0734C31.1025 38.5109 30.4856 38.78 29.8059 38.78ZM32.2519 35.6514L36.7789 36.9449L35.4773 32.3893C35.469 32.3872 35.4607 32.3851 35.4524 32.3829L32.2379 35.5974C32.2427 35.6153 32.2474 35.6333 32.2519 35.6514Z" fill="#9B4100"/>
<path fill-rule="evenodd" clip-rule="evenodd" d="M20.7983 35L27.7983 22.4H41.8811L48.8811 35L41.8811 47.6H27.7983L20.7983 35ZM23.6811 35L29.2811 45.08H40.3983L45.9983 35L40.3983 24.92H29.2811L23.6811 35Z" fill="#9B4100"/>
</g>
</g>
</svg>
