<svg width="70" height="70" viewBox="0 0 70 70" fill="none" xmlns="http://www.w3.org/2000/svg">
<g id="Icon">
<rect id="Rectangle 12" width="70" height="70" rx="10" fill="#FFD978"/>
<g id="Icon_2">
<path d="M24.111 22.3999L31.3703 29.6592V25.3209H33.7901V33.79H25.3209V31.3703H29.6593L22.3999 24.111L24.111 22.3999Z" fill="#7C5900"/>
<path d="M47.5999 24.111L40.3406 31.3703H44.679V33.79L36.2098 33.79V25.3209H38.6296V29.6592L45.8889 22.3999L47.5999 24.111Z" fill="#7C5900"/>
<path d="M25.3209 36.2098H33.7901V44.679H31.3703V40.3406L24.111 47.5999L22.3999 45.8889L29.6593 38.6296H25.3209V36.2098Z" fill="#7C5900"/>
<path d="M36.2098 36.2098H44.679V38.6296H40.3406L47.5999 45.8889L45.8889 47.5999L38.6296 40.3406V44.679H36.2098V36.2098Z" fill="#7C5900"/>
</g>
</g>
</svg>
