<svg width="70" height="70" viewBox="0 0 70 70" fill="none" xmlns="http://www.w3.org/2000/svg">
<g id="Group 16">
<rect id="Rectangle 14" width="70" height="70" rx="10" fill="#FAA9E4"/>
<g id="Icon">
<path d="M34.9999 24.6908C29.3064 24.6908 24.6908 29.3064 24.6908 34.9999V36.1454H22.3999V34.9999C22.3999 28.0411 28.0412 22.3999 34.9999 22.3999C39.2628 22.3999 43.0296 24.5168 45.309 27.754V23.5454H47.5999V31.5636H39.5818V29.2727H43.5733C41.7231 26.5086 38.5729 24.6908 34.9999 24.6908Z" fill="#96006D"/>
<path d="M47.5999 33.8545V34.9999C47.5999 41.9587 41.9587 47.5999 34.9999 47.5999C30.737 47.5999 26.9703 45.4831 24.6908 42.246V46.4545H22.3999V38.4363H30.4181V40.7272H26.4265C28.2767 43.4912 31.4269 45.309 34.9999 45.309C40.6934 45.309 45.309 40.6935 45.309 34.9999V33.8545H47.5999Z" fill="#96006D"/>
</g>
</g>
</svg>
